<?xml version="1.0" standalone="no"?><!DOCTYPE svg PUBLIC "-//W3C//DTD SVG 1.1//EN" "http://www.w3.org/Graphics/SVG/1.1/DTD/svg11.dtd"><svg t="1699787514365" class="icon" viewBox="0 0 1024 1024" version="1.1" xmlns="http://www.w3.org/2000/svg" p-id="2447" width="32" height="32" xmlns:xlink="http://www.w3.org/1999/xlink"><path d="M546.248242 128 192.158291 128C157.168701 128 128 156.724645 128 192.158291L128 831.841709C128 866.831296 156.724645 896 192.158291 896L831.841709 896C866.831296 896 896 867.275354 896 831.841709L896 477.751758C858.345811 499.533532 814.628755 512 768 512 626.615104 512 512 397.384896 512 256 512 209.371245 524.466468 165.654191 546.248242 128Z" fill="#1296db" p-id="2448"></path><path d="M768 256m-192 0a3 3 0 1 0 384 0 3 3 0 1 0-384 0Z" fill="#1296db" p-id="2449"></path></svg>